{
    "asset" : {
        "generator" : "Khronos glTF Blender I/O v0.9.11",
        "version" : "2.0"
    },
    "scene" : 0,
    "scenes" : [
        {
            "name" : "Scene",
            "nodes" : [
                0,
                1,
                2,
                3
            ]
        }
    ],
    "nodes" : [
        {
            "name" : "Light",
            "rotation" : [
                0.16907575726509094,
                0.7558803558349609,
                -0.27217137813568115,
                0.570947527885437
            ],
            "translation" : [
                4.961563587188721,
                5.4681854248046875,
                -5.592098712921143
            ]
        },
        {
            "name" : "Camera",
            "rotation" : [
                0.483536034822464,
                0.33687159419059753,
                -0.20870360732078552,
                0.7804827094078064
            ],
            "translation" : [
                7.358891487121582,
                4.958309173583984,
                6.925790786743164
            ]
        },
        {
            "mesh" : 0,
            "name" : "Cube",
            "scale" : [
                1,
                1,
                2
            ]
        },
        {
            "mesh" : 1,
            "name" : "Plane",
            "rotation" : [
                -0.5000000596046448,
                -0.5000000596046448,
                0.4999999403953552,
                -0.4999999701976776
            ],
            "scale" : [
                -0.36714568734169006,
                -0.36714568734169006,
                -0.36714568734169006
            ],
            "translation" : [
                1.0144356489181519,
                1.000200629234314,
                0.9374763369560242
            ]
        }
    ],
    "materials" : [
        {
            "doubleSided" : true,
            "name" : "wood",
            "pbrMetallicRoughness" : {
                "baseColorTexture" : {
                    "index" : 0,
                    "texCoord" : 0
                },
                "metallicFactor" : 0,
                "roughnessFactor" : 0.5
            }
        },
        {
            "doubleSided" : true,
            "name" : "ink",
            "pbrMetallicRoughness" : {
                "baseColorFactor" : [
                    0,
                    0,
                    0,
                    1
                ],
                "metallicFactor" : 0,
                "roughnessFactor" : 0.5
            }
        }
    ],
    "meshes" : [
        {
            "name" : "Cube",
            "primitives" : [
                {
                    "attributes" : {
                        "POSITION" : 0,
                        "NORMAL" : 1,
                        "TEXCOORD_0" : 2
                    },
                    "indices" : 3,
                    "material" : 0
                }
            ]
        },
        {
            "name" : "Plane.001",
            "primitives" : [
                {
                    "attributes" : {
                        "POSITION" : 4,
                        "NORMAL" : 5,
                        "TEXCOORD_0" : 6
                    },
                    "indices" : 7,
                    "material" : 1
                }
            ]
        }
    ],
    "textures" : [
        {
            "source" : 0
        }
    ],
    "images" : [
        {
            "bufferView" : 4,
            "mimeType" : "image/jpeg",
            "name" : "wood_texture"
        }
    ],
    "accessors" : [
        {
            "bufferView" : 0,
            "componentType" : 5126,
            "count" : 458,
            "max" : [
                1.1912068128585815,
                2.226071834564209,
                1.0459098815917969
            ],
            "min" : [
                -1.1912068128585815,
                0.0022368431091308594,
                -1.0459098815917969
            ],
            "type" : "VEC3"
        },
        {
            "bufferView" : 1,
            "componentType" : 5126,
            "count" : 458,
            "type" : "VEC3"
        },
        {
            "bufferView" : 2,
            "componentType" : 5126,
            "count" : 458,
            "type" : "VEC2"
        },
        {
            "bufferView" : 3,
            "componentType" : 5123,
            "count" : 708,
            "type" : "SCALAR"
        },
        {
            "bufferView" : 5,
            "componentType" : 5126,
            "count" : 21374,
            "max" : [
                0.9841974973678589,
                0.03761934116482735,
                0.9842700362205505
            ],
            "min" : [
                -6.059982776641846,
                -0.02319340594112873,
                -0.9807344079017639
            ],
            "type" : "VEC3"
        },
        {
            "bufferView" : 6,
            "componentType" : 5126,
            "count" : 21374,
            "type" : "VEC3"
        },
        {
            "bufferView" : 7,
            "componentType" : 5126,
            "count" : 21374,
            "type" : "VEC2"
        },
        {
            "bufferView" : 8,
            "componentType" : 5123,
            "count" : 65376,
            "type" : "SCALAR"
        }
    ],
    "bufferViews" : [
        {
            "buffer" : 0,
            "byteLength" : 5496,
            "byteOffset" : 0
        },
        {
            "buffer" : 0,
            "byteLength" : 5496,
            "byteOffset" : 5496
        },
        {
            "buffer" : 0,
            "byteLength" : 3664,
            "byteOffset" : 10992
        },
        {
            "buffer" : 0,
            "byteLength" : 1416,
            "byteOffset" : 14656
        },
        {
            "buffer" : 0,
            "byteLength" : 199179,
            "byteOffset" : 16072
        },
        {
            "buffer" : 0,
            "byteLength" : 256488,
            "byteOffset" : 215252
        },
        {
            "buffer" : 0,
            "byteLength" : 256488,
            "byteOffset" : 471740
        },
        {
            "buffer" : 0,
            "byteLength" : 170992,
            "byteOffset" : 728228
        },
        {
            "buffer" : 0,
            "byteLength" : 130752,
            "byteOffset" : 899220
        }
    ],
    "buffers" : [
        {
            "byteLength" : 1029972,
            "uri" : "data:application/octet-stream;base64,"
        }
    ]
}
