{
    "asset" : {
        "generator" : "Khronos glTF Blender I/O v0.9.11",
        "version" : "2.0"
    },
    "scene" : 0,
    "scenes" : [
        {
            "name" : "Scene",
            "nodes" : [
                0,
                1,
                2,
                3,
                4,
                5,
                6,
                7,
                8
            ]
        }
    ],
    "nodes" : [
        {
            "name" : "Light",
            "rotation" : [
                0.16907575726509094,
                0.7558803558349609,
                -0.27217137813568115,
                0.570947527885437
            ],
            "translation" : [
                -3.004697799682617,
                1.98103928565979,
                3.998539924621582
            ]
        },
        {
            "name" : "Camera",
            "rotation" : [
                0.6011789441108704,
                -0.3420472741127014,
                0.31684187054634094,
                0.6489982604980469
            ],
            "translation" : [
                -8.434794425964355,
                1.232892394065857,
                9.667167663574219
            ]
        },
        {
            "mesh" : 0,
            "name" : "Sphere",
            "rotation" : [
                0.7071067690849304,
                0,
                0,
                0.7071067690849304
            ]
        },
        {
            "mesh" : 1,
            "name" : "Sphere.001",
            "rotation" : [
                0.7071067690849304,
                0,
                0,
                0.7071067690849304
            ],
            "scale" : [
                0.7799999713897705,
                0.7799999713897705,
                0.7799999713897705
            ]
        },
        {
            "mesh" : 2,
            "name" : "Plane",
            "scale" : [
                100,
                100,
                100
            ],
            "translation" : [
                0,
                -1.100000023841858,
                0
            ]
        },
        {
            "name" : "Light.001",
            "rotation" : [
                0.16907575726509094,
                0.7558803558349609,
                -0.27217137813568115,
                0.570947527885437
            ],
            "translation" : [
                -3.004697799682617,
                3.0146827697753906,
                -0.0007909536361694336
            ]
        },
        {
            "mesh" : 3,
            "name" : "Text",
            "rotation" : [
                0.5,
                -0.5,
                0.5,
                0.4999999701976776
            ],
            "scale" : [
                1.5,
                1.5,
                1.5
            ],
            "translation" : [
                0,
                -1.0700000524520874,
                1
            ]
        },
        {
            "mesh" : 4,
            "name" : "Sphere.start",
            "scale" : [
                0.3999999761581421,
                0.3999999761581421,
                0.3999999761581421
            ]
        },
        {
            "mesh" : 5,
            "name" : "Sphere.002",
            "scale" : [
                0.5,
                0.5,
                0.5
            ],
            "translation" : [
                0,
                2,
                2
            ]
        }
    ],
    "animations" : [
        {
            "channels" : [
                {
                    "sampler" : 0,
                    "target" : {
                        "node" : 2,
                        "path" : "rotation"
                    }
                }
            ],
            "name" : "SphereAction",
            "samplers" : [
                {
                    "input" : 23,
                    "interpolation" : "CUBICSPLINE",
                    "output" : 24
                }
            ]
        },
        {
            "channels" : [
                {
                    "sampler" : 0,
                    "target" : {
                        "node" : 3,
                        "path" : "rotation"
                    }
                }
            ],
            "name" : "Sphere.001Action",
            "samplers" : [
                {
                    "input" : 23,
                    "interpolation" : "CUBICSPLINE",
                    "output" : 25
                }
            ]
        },
        {
            "channels" : [
                {
                    "sampler" : 0,
                    "target" : {
                        "node" : 6,
                        "path" : "translation"
                    }
                }
            ],
            "name" : "TextAction",
            "samplers" : [
                {
                    "input" : 26,
                    "interpolation" : "CUBICSPLINE",
                    "output" : 27
                }
            ]
        }
    ],
    "materials" : [
        {
            "doubleSided" : true,
            "name" : "Material.002",
            "pbrMetallicRoughness" : {
                "baseColorFactor" : [
                    0.24228115379810333,
                    0.016807377338409424,
                    0.006512089632451534,
                    1
                ],
                "metallicFactor" : 0,
                "roughnessFactor" : 0
            }
        },
        {
            "doubleSided" : true,
            "name" : "Material.003",
            "pbrMetallicRoughness" : {
                "baseColorFactor" : [
                    0.03560122847557068,
                    0.4286905527114868,
                    0.7991030812263489,
                    1
                ],
                "metallicFactor" : 0,
                "roughnessFactor" : 0.5076923370361328
            }
        },
        {
            "doubleSided" : true,
            "name" : "Material.001",
            "pbrMetallicRoughness" : {
                "baseColorFactor" : [
                    0.800000011920929,
                    0.800000011920929,
                    0.800000011920929,
                    1
                ],
                "metallicFactor" : 0,
                "roughnessFactor" : 0
            }
        }
    ],
    "meshes" : [
        {
            "name" : "Sphere",
            "primitives" : [
                {
                    "attributes" : {
                        "POSITION" : 0,
                        "NORMAL" : 1,
                        "TEXCOORD_0" : 2
                    },
                    "indices" : 3,
                    "material" : 0
                }
            ]
        },
        {
            "name" : "Sphere.001",
            "primitives" : [
                {
                    "attributes" : {
                        "POSITION" : 4,
                        "NORMAL" : 5,
                        "TEXCOORD_0" : 6
                    },
                    "indices" : 7,
                    "material" : 1
                }
            ]
        },
        {
            "name" : "Plane",
            "primitives" : [
                {
                    "attributes" : {
                        "POSITION" : 8,
                        "NORMAL" : 9,
                        "TEXCOORD_0" : 10
                    },
                    "indices" : 11,
                    "material" : 2
                }
            ]
        },
        {
            "name" : "CUText",
            "primitives" : [
                {
                    "attributes" : {
                        "POSITION" : 12,
                        "NORMAL" : 13
                    },
                    "indices" : 14,
                    "material" : 0
                }
            ]
        },
        {
            "name" : "Sphere.002",
            "primitives" : [
                {
                    "attributes" : {
                        "POSITION" : 15,
                        "NORMAL" : 16,
                        "TEXCOORD_0" : 17
                    },
                    "indices" : 18
                }
            ]
        },
        {
            "name" : "Sphere.003",
            "primitives" : [
                {
                    "attributes" : {
                        "POSITION" : 19,
                        "NORMAL" : 20,
                        "TEXCOORD_0" : 21
                    },
                    "indices" : 22,
                    "material" : 0
                }
            ]
        }
    ],
    "accessors" : [
        {
            "bufferView" : 0,
            "componentType" : 5126,
            "count" : 1920,
            "max" : [
                0.9238799810409546,
                0.7071067690849304,
                0.9238799214363098
            ],
            "min" : [
                -0.9238799810409546,
                -0.7071067690849304,
                -0.9238799810409546
            ],
            "type" : "VEC3"
        },
        {
            "bufferView" : 1,
            "componentType" : 5126,
            "count" : 1920,
            "type" : "VEC3"
        },
        {
            "bufferView" : 2,
            "componentType" : 5126,
            "count" : 1920,
            "type" : "VEC2"
        },
        {
            "bufferView" : 3,
            "componentType" : 5123,
            "count" : 2880,
            "type" : "SCALAR"
        },
        {
            "bufferView" : 4,
            "componentType" : 5126,
            "count" : 1280,
            "max" : [
                1.000000238418579,
                0.7071067690849304,
                1.0000003576278687
            ],
            "min" : [
                -0.9999998211860657,
                -0.7071067690849304,
                -1
            ],
            "type" : "VEC3"
        },
        {
            "bufferView" : 5,
            "componentType" : 5126,
            "count" : 1280,
            "type" : "VEC3"
        },
        {
            "bufferView" : 6,
            "componentType" : 5126,
            "count" : 1280,
            "type" : "VEC2"
        },
        {
            "bufferView" : 7,
            "componentType" : 5123,
            "count" : 1920,
            "type" : "SCALAR"
        },
        {
            "bufferView" : 8,
            "componentType" : 5126,
            "count" : 4,
            "max" : [
                1,
                0,
                1
            ],
            "min" : [
                -1,
                0,
                -1
            ],
            "type" : "VEC3"
        },
        {
            "bufferView" : 9,
            "componentType" : 5126,
            "count" : 4,
            "type" : "VEC3"
        },
        {
            "bufferView" : 10,
            "componentType" : 5126,
            "count" : 4,
            "type" : "VEC2"
        },
        {
            "bufferView" : 11,
            "componentType" : 5123,
            "count" : 6,
            "type" : "SCALAR"
        },
        {
            "bufferView" : 12,
            "componentType" : 5126,
            "count" : 1560,
            "max" : [
                3.75700044631958,
                0.10000000149011612,
                0.009000000543892384
            ],
            "min" : [
                0.07600000500679016,
                -0.10000000149011612,
                -0.6820000410079956
            ],
            "type" : "VEC3"
        },
        {
            "bufferView" : 13,
            "componentType" : 5126,
            "count" : 1560,
            "type" : "VEC3"
        },
        {
            "bufferView" : 14,
            "componentType" : 5123,
            "count" : 3936,
            "type" : "SCALAR"
        },
        {
            "bufferView" : 15,
            "componentType" : 5126,
            "count" : 1984,
            "max" : [
                1.000000238418579,
                1,
                1.0000003576278687
            ],
            "min" : [
                -0.9999998211860657,
                -1,
                -1
            ],
            "type" : "VEC3"
        },
        {
            "bufferView" : 16,
            "componentType" : 5126,
            "count" : 1984,
            "type" : "VEC3"
        },
        {
            "bufferView" : 17,
            "componentType" : 5126,
            "count" : 1984,
            "type" : "VEC2"
        },
        {
            "bufferView" : 18,
            "componentType" : 5123,
            "count" : 2880,
            "type" : "SCALAR"
        },
        {
            "bufferView" : 19,
            "componentType" : 5126,
            "count" : 559,
            "max" : [
                1.000000238418579,
                1,
                1.0000003576278687
            ],
            "min" : [
                -0.9999998211860657,
                -1,
                -1
            ],
            "type" : "VEC3"
        },
        {
            "bufferView" : 20,
            "componentType" : 5126,
            "count" : 559,
            "type" : "VEC3"
        },
        {
            "bufferView" : 21,
            "componentType" : 5126,
            "count" : 559,
            "type" : "VEC2"
        },
        {
            "bufferView" : 22,
            "componentType" : 5123,
            "count" : 2880,
            "type" : "SCALAR"
        },
        {
            "bufferView" : 23,
            "componentType" : 5126,
            "count" : 2,
            "max" : [
                2.3333333333333335
            ],
            "min" : [
                1.1666666666666667
            ],
            "type" : "SCALAR"
        },
        {
            "bufferView" : 24,
            "componentType" : 5126,
            "count" : 6,
            "type" : "VEC4"
        },
        {
            "bufferView" : 25,
            "componentType" : 5126,
            "count" : 6,
            "type" : "VEC4"
        },
        {
            "bufferView" : 26,
            "componentType" : 5126,
            "count" : 2,
            "max" : [
                5
            ],
            "min" : [
                4.333333333333333
            ],
            "type" : "SCALAR"
        },
        {
            "bufferView" : 27,
            "componentType" : 5126,
            "count" : 6,
            "type" : "VEC3"
        }
    ],
    "bufferViews" : [
        {
            "buffer" : 0,
            "byteLength" : 23040,
            "byteOffset" : 0
        },
        {
            "buffer" : 0,
            "byteLength" : 23040,
            "byteOffset" : 23040
        },
        {
            "buffer" : 0,
            "byteLength" : 15360,
            "byteOffset" : 46080
        },
        {
            "buffer" : 0,
            "byteLength" : 5760,
            "byteOffset" : 61440
        },
        {
            "buffer" : 0,
            "byteLength" : 15360,
            "byteOffset" : 67200
        },
        {
            "buffer" : 0,
            "byteLength" : 15360,
            "byteOffset" : 82560
        },
        {
            "buffer" : 0,
            "byteLength" : 10240,
            "byteOffset" : 97920
        },
        {
            "buffer" : 0,
            "byteLength" : 3840,
            "byteOffset" : 108160
        },
        {
            "buffer" : 0,
            "byteLength" : 48,
            "byteOffset" : 112000
        },
        {
            "buffer" : 0,
            "byteLength" : 48,
            "byteOffset" : 112048
        },
        {
            "buffer" : 0,
            "byteLength" : 32,
            "byteOffset" : 112096
        },
        {
            "buffer" : 0,
            "byteLength" : 12,
            "byteOffset" : 112128
        },
        {
            "buffer" : 0,
            "byteLength" : 18720,
            "byteOffset" : 112140
        },
        {
            "buffer" : 0,
            "byteLength" : 18720,
            "byteOffset" : 130860
        },
        {
            "buffer" : 0,
            "byteLength" : 7872,
            "byteOffset" : 149580
        },
        {
            "buffer" : 0,
            "byteLength" : 23808,
            "byteOffset" : 157452
        },
        {
            "buffer" : 0,
            "byteLength" : 23808,
            "byteOffset" : 181260
        },
        {
            "buffer" : 0,
            "byteLength" : 15872,
            "byteOffset" : 205068
        },
        {
            "buffer" : 0,
            "byteLength" : 5760,
            "byteOffset" : 220940
        },
        {
            "buffer" : 0,
            "byteLength" : 6708,
            "byteOffset" : 226700
        },
        {
            "buffer" : 0,
            "byteLength" : 6708,
            "byteOffset" : 233408
        },
        {
            "buffer" : 0,
            "byteLength" : 4472,
            "byteOffset" : 240116
        },
        {
            "buffer" : 0,
            "byteLength" : 5760,
            "byteOffset" : 244588
        },
        {
            "buffer" : 0,
            "byteLength" : 8,
            "byteOffset" : 250348
        },
        {
            "buffer" : 0,
            "byteLength" : 96,
            "byteOffset" : 250356
        },
        {
            "buffer" : 0,
            "byteLength" : 96,
            "byteOffset" : 250452
        },
        {
            "buffer" : 0,
            "byteLength" : 8,
            "byteOffset" : 250548
        },
        {
            "buffer" : 0,
            "byteLength" : 72,
            "byteOffset" : 250556
        }
    ],
    "buffers" : [
        {
            "byteLength" : 250628,
            "uri" : "text4.bin"
        }
    ]
}
